<?xml version="1.0" standalone="no"?>
<!DOCTYPE svg PUBLIC "-//W3C//DTD SVG 20010904//EN"
 "http://www.w3.org/TR/2001/REC-SVG-20010904/DTD/svg10.dtd">
<svg version="1.0" xmlns="http://www.w3.org/2000/svg"
 width="600.000000pt" height="600.000000pt" viewBox="0 0 600.000000 600.000000"
 preserveAspectRatio="xMidYMid meet">
<metadata>
Created by potrace 1.14, written by Peter Selinger 2001-2017
</metadata>
<g transform="translate(0.000000,600.000000) scale(0.100000,-0.100000)"
fill="#000000" stroke="none">
<path d="M2155 5156 l-840 -563 -2 -1214 -2 -1214 844 -563 845 -562 845 562
844 563 -2 1214 -2 1214 -840 563 c-462 310 -842 563 -845 563 -3 0 -383 -253
-845 -563z m1863 -1898 l-3 -1081 -509 -334 c-280 -183 -513 -333 -518 -333
-5 0 -233 151 -508 336 l-500 335 0 1080 0 1079 1020 0 1020 0 -2 -1082z"/>
<path d="M2160 3218 l1 -943 413 -275 c228 -151 417 -274 420 -273 4 0 196
124 426 275 l419 273 1 943 0 942 -840 0 -840 0 0 -942z m964 98 c118 -69 160
-224 91 -341 -89 -153 -312 -166 -415 -23 -99 136 -40 325 117 384 57 22 152
12 207 -20z"/>
<path d="M1312 1599 l3 -192 844 -568 c465 -312 850 -565 855 -561 35 21 1653
1116 1664 1126 9 9 12 58 10 198 l-3 185 -839 -568 c-462 -312 -844 -565 -850
-562 -6 4 -346 233 -756 508 -410 276 -787 529 -838 564 l-92 62 2 -192z"/>
</g>
</svg>
